<svg width="24" height="24" viewBox="0 0 24 24" fill="none" xmlns="http://www.w3.org/2000/svg">
<path d="M6 2V6H2V2H6ZM6 0H2C0.9 0 0 0.9 0 2V6C0 7.1 0.9 8 2 8H6C7.1 8 8 7.1 8 6V2C8 0.9 7.1 0 6 0Z" transform="translate(3 3)" fill="white"/>
<path d="M5 4C5 4.55228 4.55228 5 4 5C3.44772 5 3 4.55228 3 4C3 3.44772 3.44772 3 4 3C4.55228 3 5 3.44772 5 4Z" transform="translate(3 3)" fill="white"/>
<path d="M6 2V6H2V2H6ZM6 0H2C0.9 0 0 0.9 0 2V6C0 7.1 0.9 8 2 8H6C7.1 8 8 7.1 8 6V2C8 0.9 7.1 0 6 0Z" transform="translate(3 13)" fill="white"/>
<path d="M5 4C5 4.55228 4.55228 5 4 5C3.44772 5 3 4.55228 3 4C3 3.44772 3.44772 3 4 3C4.55228 3 5 3.44772 5 4Z" transform="translate(3 13)" fill="white"/>
<path d="M6 2V6H2V2H6ZM6 0H2C0.9 0 0 0.9 0 2V6C0 7.1 0.9 8 2 8H6C7.1 8 8 7.1 8 6V2C8 0.9 7.1 0 6 0Z" transform="translate(13 3)" fill="white"/>
<path d="M5 4C5 4.55228 4.55228 5 4 5C3.44772 5 3 4.55228 3 4C3 3.44772 3.44772 3 4 3C4.55228 3 5 3.44772 5 4Z" transform="translate(13 3)" fill="white"/>
<path d="M2 1C2 1.55228 1.55228 2 1 2C0.447715 2 0 1.55228 0 1C0 0.447715 0.447715 0 1 0C1.55228 0 2 0.447715 2 1Z" transform="translate(13 13)" fill="white"/>
<path d="M4 3C4 3.55228 3.55228 4 3 4C2.44772 4 2 3.55228 2 3C2 2.44772 2.44772 2 3 2C3.55228 2 4 2.44772 4 3Z" transform="translate(13 13)" fill="white"/>
<path d="M2 5C2 5.55228 1.55228 6 1 6C0.447715 6 0 5.55228 0 5C0 4.44772 0.447715 4 1 4C1.55228 4 2 4.44772 2 5Z" transform="translate(13 13)" fill="white"/>
<path d="M4 7C4 7.55228 3.55228 8 3 8C2.44772 8 2 7.55228 2 7C2 6.44772 2.44772 6 3 6C3.55228 6 4 6.44772 4 7Z" transform="translate(13 13)" fill="white"/>
<path d="M6 5C6 5.55228 5.55228 6 5 6C4.44772 6 4 5.55228 4 5C4 4.44772 4.44772 4 5 4C5.55228 4 6 4.44772 6 5Z" transform="translate(13 13)" fill="white"/>
<path d="M6 1C6 1.55228 5.55228 2 5 2C4.44772 2 4 1.55228 4 1C4 0.447715 4.44772 0 5 0C5.55228 0 6 0.447715 6 1Z" transform="translate(13 13)" fill="white"/>
<path d="M8 3C8 3.55228 7.55228 4 7 4C6.44772 4 6 3.55228 6 3C6 2.44772 6.44772 2 7 2C7.55228 2 8 2.44772 8 3Z" transform="translate(13 13)" fill="white"/>
<path d="M8 7C8 7.55228 7.55228 8 7 8C6.44772 8 6 7.55228 6 7C6 6.44772 6.44772 6 7 6C7.55228 6 8 6.44772 8 7Z" transform="translate(13 13)" fill="white"/>
</svg>
