<?xml version="1.0" standalone="no"?>
<!DOCTYPE svg PUBLIC "-//W3C//DTD SVG 20010904//EN"
 "http://www.w3.org/TR/2001/REC-SVG-20010904/DTD/svg10.dtd">
<svg version="1.0" xmlns="http://www.w3.org/2000/svg"
 width="260.000000pt" height="260.000000pt" viewBox="0 0 260.000000 260.000000"
 preserveAspectRatio="xMidYMid meet">
<metadata>
Created by potrace 1.11, written by Peter Selinger 2001-2013
</metadata>
<g transform="translate(0.000000,260.000000) scale(0.100000,-0.100000)"
fill="#000000" stroke="none">
<path d="M465 1917 c-74 -42 -116 -134 -96 -213 10 -38 97 -278 272 -754 69
-184 112 -269 165 -323 78 -77 155 -83 247 -20 70 48 99 104 203 391 27 72 51
132 54 132 3 0 32 -71 64 -157 99 -266 154 -355 244 -395 54 -24 103 -18 166
23 91 57 85 45 402 921 70 194 77 243 45 306 -39 76 -97 112 -181 112 -106 0
-154 -42 -209 -184 -21 -56 -65 -172 -97 -258 -32 -87 -61 -158 -65 -158 -4 0
-20 35 -35 78 -91 253 -166 438 -186 459 -59 64 -163 82 -245 42 -59 -29 -75
-55 -137 -226 -30 -81 -71 -191 -90 -243 -20 -52 -39 -102 -42 -110 -3 -8 -49
100 -101 240 -53 140 -104 267 -115 282 -53 76 -180 102 -263 55z"/>
</g>
</svg>
