<svg width="24" height="24" viewBox="0 0 24 24" fill="none" xmlns="http://www.w3.org/2000/svg">
<path d="M9 22.59V18.99C3.99 18.73 0 14.57 0 9.5C0 4.26 4.26 0 9.5 0C14.74 0 19 4.26 19 9.5C19 14.45 15.56 19.43 10.43 21.9L9 22.59ZM9.5 2C5.36 2 2 5.36 2 9.5C2 13.64 5.36 17 9.5 17H11V19.3C14.64 17 17 13.22 17 9.5C17 5.36 13.64 2 9.5 2Z" transform="translate(3 1)" fill="#02A7F7"/>
<path d="M2 0H0V2H2V0Z" transform="translate(11.5 14.5)" fill="#02A7F7"/>
<path d="M5 9H3C3 5.75 6 6 6 4C6 2.9 5.1 2 4 2C2.9 2 2 2.9 2 4H0C0 1.79 1.79 0 4 0C6.21 0 8 1.79 8 4C8 6.5 5 6.75 5 9Z" transform="translate(8.5 4)" fill="#02A7F7"/>
</svg>
