<svg width="24" height="24" viewBox="0 0 24 24" fill="none" xmlns="http://www.w3.org/2000/svg">
<circle cx="12" cy="12" r="11" stroke="#339AF0" stroke-width="2"/>
<path d="M2.9225 6.14939L0.1425 8.93939C-0.0475 9.13939 -0.0475 9.44939 0.1425 9.64939L2.9225 12.4394C3.2325 12.7594 3.7725 12.5294 3.7725 12.0894V10.2894H8.7825C9.3325 10.2894 9.7825 9.83939 9.7825 9.28939C9.7825 8.73939 9.3325 8.28939 8.7825 8.28939H3.7725V6.49939C3.7725 6.04939 3.2325 5.82939 2.9225 6.14939ZM15.4325 2.93939L12.6525 0.149395C12.3425 -0.170605 11.8025 0.0593945 11.8025 0.499395V2.28939H6.7825C6.2325 2.28939 5.7825 2.73939 5.7825 3.28939C5.7825 3.83939 6.2325 4.28939 6.7825 4.28939H11.7925V6.07939C11.7925 6.52939 12.3325 6.74939 12.6425 6.42939L15.4225 3.63939C15.6225 3.44939 15.6225 3.12939 15.4325 2.93939Z" transform="translate(4.21753 5.71057)" fill="#339AF0"/>
</svg>
