<svg width="315" height="315" viewBox="0 0 315 315" fill="none" xmlns="http://www.w3.org/2000/svg">
<path d="M10.8625 0H0V10.8625H10.8625V0Z" transform="translate(86.8966)" fill="black"/>
<path d="M10.8625 0H0V10.8625H10.8625V0Z" transform="translate(119.482)" fill="black"/>
<path d="M10.8625 0H0V10.8625H10.8625V0Z" transform="translate(130.344)" fill="black"/>
<path d="M10.8625 0H0V10.8625H10.8625V0Z" transform="translate(162.931)" fill="black"/>
<path d="M10.8625 0H0V10.8625H10.8625V0Z" transform="translate(173.793)" fill="black"/>
<path d="M10.8625 0H0V10.8625H10.8625V0Z" transform="translate(195.517)" fill="black"/>
<path d="M10.8625 0H0V10.8625H10.8625V0Z" transform="translate(97.7581 10.8615)" fill="black"/>
<path d="M10.8625 0H0V10.8625H10.8625V0Z" transform="translate(108.62 10.8615)" fill="black"/>
<path d="M10.8625 0H0V10.8625H10.8625V0Z" transform="translate(130.344 10.8615)" fill="black"/>
<path d="M10.8625 0H0V10.8625H10.8625V0Z" transform="translate(141.207 10.8615)" fill="black"/>
<path d="M10.8625 0H0V10.8625H10.8625V0Z" transform="translate(152.068 10.8615)" fill="black"/>
<path d="M10.8625 0H0V10.8625H10.8625V0Z" transform="translate(173.793 10.8615)" fill="black"/>
<path d="M10.8625 0H0V10.8625H10.8625V0Z" transform="translate(86.8966 21.7233)" fill="black"/>
<path d="M10.8625 0H0V10.8625H10.8625V0Z" transform="translate(97.7581 21.7233)" fill="black"/>
<path d="M10.8625 0H0V10.8625H10.8625V0Z" transform="translate(108.62 21.7233)" fill="black"/>
<path d="M10.8625 0H0V10.8625H10.8625V0Z" transform="translate(119.482 21.7233)" fill="black"/>
<path d="M10.8625 0H0V10.8625H10.8625V0Z" transform="translate(130.344 21.7233)" fill="black"/>
<path d="M10.8625 0H0V10.8625H10.8625V0Z" transform="translate(152.068 21.7233)" fill="black"/>
<path d="M10.8625 0H0V10.8625H10.8625V0Z" transform="translate(162.931 21.7233)" fill="black"/>
<path d="M10.8625 0H0V10.8625H10.8625V0Z" transform="translate(173.793 21.7233)" fill="black"/>
<path d="M10.8625 0H0V10.8625H10.8625V0Z" transform="translate(184.655 21.7233)" fill="black"/>
<path d="M10.8625 0H0V10.8625H10.8625V0Z" transform="translate(217.241 21.7233)" fill="black"/>
<path d="M10.8625 0H0V10.8625H10.8625V0Z" transform="translate(97.7581 32.5868)" fill="black"/>
<path d="M10.8625 0H0V10.8625H10.8625V0Z" transform="translate(130.344 32.5868)" fill="black"/>
<path d="M10.8625 0H0V10.8625H10.8625V0Z" transform="translate(152.068 32.5868)" fill="black"/>
<path d="M10.8625 0H0V10.8625H10.8625V0Z" transform="translate(184.655 32.5868)" fill="black"/>
<path d="M10.8625 0H0V10.8625H10.8625V0Z" transform="translate(195.517 32.5868)" fill="black"/>
<path d="M10.8625 0H0V10.8625H10.8625V0Z" transform="translate(217.241 32.5868)" fill="black"/>
<path d="M10.8625 0H0V10.8625H10.8625V0Z" transform="translate(97.7581 43.4476)" fill="black"/>
<path d="M10.8625 0H0V10.8625H10.8625V0Z" transform="translate(108.62 43.4476)" fill="black"/>
<path d="M10.8625 0H0V10.8625H10.8625V0Z" transform="translate(130.344 43.4476)" fill="black"/>
<path d="M10.8625 0H0V10.8625H10.8625V0Z" transform="translate(141.207 43.4476)" fill="black"/>
<path d="M10.8625 0H0V10.8625H10.8625V0Z" transform="translate(152.068 43.4476)" fill="black"/>
<path d="M10.8625 0H0V10.8625H10.8625V0Z" transform="translate(162.931 43.4476)" fill="black"/>
<path d="M10.8625 0H0V10.8625H10.8625V0Z" transform="translate(184.655 43.4476)" fill="black"/>
<path d="M10.8625 0H0V10.8625H10.8625V0Z" transform="translate(86.8966 54.3101)" fill="black"/>
<path d="M10.8625 0H0V10.8625H10.8625V0Z" transform="translate(97.7581 54.3101)" fill="black"/>
<path d="M10.8625 0H0V10.8625H10.8625V0Z" transform="translate(130.344 54.3101)" fill="black"/>
<path d="M10.8625 0H0V10.8625H10.8625V0Z" transform="translate(162.931 54.3101)" fill="black"/>
<path d="M10.8625 0H0V10.8625H10.8625V0Z" transform="translate(217.241 54.3101)" fill="black"/>
<path d="M10.8625 0H0V10.8625H10.8625V0Z" transform="translate(86.8966 65.1715)" fill="black"/>
<path d="M10.8625 0H0V10.8625H10.8625V0Z" transform="translate(108.62 65.1715)" fill="black"/>
<path d="M10.8625 0H0V10.8625H10.8625V0Z" transform="translate(130.344 65.1715)" fill="black"/>
<path d="M10.8625 0H0V10.8625H10.8625V0Z" transform="translate(152.068 65.1715)" fill="black"/>
<path d="M10.8625 0H0V10.8625H10.8625V0Z" transform="translate(173.793 65.1715)" fill="black"/>
<path d="M10.8625 0H0V10.8625H10.8625V0Z" transform="translate(195.517 65.1715)" fill="black"/>
<path d="M10.8625 0H0V10.8625H10.8625V0Z" transform="translate(217.241 65.1715)" fill="black"/>
<path d="M10.8625 0H0V10.8625H10.8625V0Z" transform="translate(119.482 76.0334)" fill="black"/>
<path d="M10.8625 0H0V10.8625H10.8625V0Z" transform="translate(152.068 76.0334)" fill="black"/>
<path d="M10.8625 0H0V10.8625H10.8625V0Z" transform="translate(162.931 76.0334)" fill="black"/>
<path d="M10.8625 0H0V10.8625H10.8625V0Z" transform="translate(173.793 76.0334)" fill="black"/>
<path d="M10.8625 0H0V10.8625H10.8625V0Z" transform="translate(195.517 76.0334)" fill="black"/>
<path d="M10.8625 0H0V10.8625H10.8625V0Z" transform="translate(206.378 76.0334)" fill="black"/>
<path d="M10.8625 0H0V10.8625H10.8625V0Z" transform="translate(217.241 76.0334)" fill="black"/>
<path d="M10.8625 0H0V10.8625H10.8625V0Z" transform="translate(0 86.8969)" fill="black"/>
<path d="M10.8625 0H0V10.8625H10.8625V0Z" transform="translate(21.7239 86.8969)" fill="black"/>
<path d="M10.8625 0H0V10.8625H10.8625V0Z" transform="translate(65.1718 86.8969)" fill="black"/>
<path d="M10.8625 0H0V10.8625H10.8625V0Z" transform="translate(76.0341 86.8969)" fill="black"/>
<path d="M10.8625 0H0V10.8625H10.8625V0Z" transform="translate(97.7581 86.8969)" fill="black"/>
<path d="M10.8625 0H0V10.8625H10.8625V0Z" transform="translate(108.62 86.8969)" fill="black"/>
<path d="M10.8625 0H0V10.8625H10.8625V0Z" transform="translate(130.344 86.8969)" fill="black"/>
<path d="M10.8625 0H0V10.8625H10.8625V0Z" transform="translate(141.207 86.8969)" fill="black"/>
<path d="M10.8625 0H0V10.8625H10.8625V0Z" transform="translate(152.068 86.8969)" fill="black"/>
<path d="M10.8625 0H0V10.8625H10.8625V0Z" transform="translate(217.241 86.8969)" fill="black"/>
<path d="M10.8625 0H0V10.8625H10.8625V0Z" transform="translate(249.827 86.8969)" fill="black"/>
<path d="M10.8625 0H0V10.8625H10.8625V0Z" transform="translate(282.414 86.8969)" fill="black"/>
<path d="M10.8625 0H0V10.8625H10.8625V0Z" transform="translate(304.137 86.8969)" fill="black"/>
<path d="M10.8625 0H0V10.8625H10.8625V0Z" transform="translate(0 97.7588)" fill="black"/>
<path d="M10.8625 0H0V10.8625H10.8625V0Z" transform="translate(10.8613 97.7588)" fill="black"/>
<path d="M10.8625 0H0V10.8625H10.8625V0Z" transform="translate(21.7239 97.7588)" fill="black"/>
<path d="M10.8625 0H0V10.8625H10.8625V0Z" transform="translate(32.5864 97.7588)" fill="black"/>
<path d="M10.8625 0H0V10.8625H10.8625V0Z" transform="translate(43.4478 97.7588)" fill="black"/>
<path d="M10.8625 0H0V10.8625H10.8625V0Z" transform="translate(76.0341 97.7588)" fill="black"/>
<path d="M10.8625 0H0V10.8625H10.8625V0Z" transform="translate(86.8966 97.7588)" fill="black"/>
<path d="M10.8625 0H0V10.8625H10.8625V0Z" transform="translate(97.7581 97.7588)" fill="black"/>
<path d="M10.8625 0H0V10.8625H10.8625V0Z" transform="translate(108.62 97.7588)" fill="black"/>
<path d="M10.8625 0H0V10.8625H10.8625V0Z" transform="translate(130.344 97.7588)" fill="black"/>
<path d="M10.8625 0H0V10.8625H10.8625V0Z" transform="translate(141.207 97.7588)" fill="black"/>
<path d="M10.8625 0H0V10.8625H10.8625V0Z" transform="translate(152.068 97.7588)" fill="black"/>
<path d="M10.8625 0H0V10.8625H10.8625V0Z" transform="translate(206.378 97.7588)" fill="black"/>
<path d="M10.8625 0H0V10.8625H10.8625V0Z" transform="translate(217.241 97.7588)" fill="black"/>
<path d="M10.8625 0H0V10.8625H10.8625V0Z" transform="translate(238.965 97.7588)" fill="black"/>
<path d="M10.8625 0H0V10.8625H10.8625V0Z" transform="translate(249.827 97.7588)" fill="black"/>
<path d="M10.8625 0H0V10.8625H10.8625V0Z" transform="translate(293.275 97.7588)" fill="black"/>
<path d="M10.8625 0H0V10.8625H10.8625V0Z" transform="translate(304.137 97.7588)" fill="black"/>
<path d="M10.8625 0H0V10.8625H10.8625V0Z" transform="translate(32.5864 108.62)" fill="black"/>
<path d="M10.8625 0H0V10.8625H10.8625V0Z" transform="translate(54.3102 108.62)" fill="black"/>
<path d="M10.8625 0H0V10.8625H10.8625V0Z" transform="translate(65.1718 108.62)" fill="black"/>
<path d="M10.8625 0H0V10.8625H10.8625V0Z" transform="translate(76.0341 108.62)" fill="black"/>
<path d="M10.8625 0H0V10.8625H10.8625V0Z" transform="translate(108.62 108.62)" fill="black"/>
<path d="M10.8625 0H0V10.8625H10.8625V0Z" transform="translate(130.344 108.62)" fill="black"/>
<path d="M10.8625 0H0V10.8625H10.8625V0Z" transform="translate(162.931 108.62)" fill="black"/>
<path d="M10.8625 0H0V10.8625H10.8625V0Z" transform="translate(184.655 108.62)" fill="black"/>
<path d="M10.8625 0H0V10.8625H10.8625V0Z" transform="translate(195.517 108.62)" fill="black"/>
<path d="M10.8625 0H0V10.8625H10.8625V0Z" transform="translate(206.378 108.62)" fill="black"/>
<path d="M10.8625 0H0V10.8625H10.8625V0Z" transform="translate(217.241 108.62)" fill="black"/>
<path d="M10.8625 0H0V10.8625H10.8625V0Z" transform="translate(238.965 108.62)" fill="black"/>
<path d="M10.8625 0H0V10.8625H10.8625V0Z" transform="translate(271.551 108.62)" fill="black"/>
<path d="M10.8625 0H0V10.8625H10.8625V0Z" transform="translate(282.414 108.62)" fill="black"/>
<path d="M10.8625 0H0V10.8625H10.8625V0Z" transform="translate(304.137 108.62)" fill="black"/>
<path d="M10.8625 0H0V10.8625H10.8625V0Z" transform="translate(0 119.482)" fill="black"/>
<path d="M10.8625 0H0V10.8625H10.8625V0Z" transform="translate(21.7239 119.482)" fill="black"/>
<path d="M10.8625 0H0V10.8625H10.8625V0Z" transform="translate(32.5864 119.482)" fill="black"/>
<path d="M10.8625 0H0V10.8625H10.8625V0Z" transform="translate(54.3102 119.482)" fill="black"/>
<path d="M10.8625 0H0V10.8625H10.8625V0Z" transform="translate(108.62 119.482)" fill="black"/>
<path d="M10.8625 0H0V10.8625H10.8625V0Z" transform="translate(130.344 119.482)" fill="black"/>
<path d="M10.8625 0H0V10.8625H10.8625V0Z" transform="translate(141.207 119.482)" fill="black"/>
<path d="M10.8625 0H0V10.8625H10.8625V0Z" transform="translate(195.517 119.482)" fill="black"/>
<path d="M10.8625 0H0V10.8625H10.8625V0Z" transform="translate(217.241 119.482)" fill="black"/>
<path d="M10.8625 0H0V10.8625H10.8625V0Z" transform="translate(249.827 119.482)" fill="black"/>
<path d="M10.8625 0H0V10.8625H10.8625V0Z" transform="translate(271.551 119.482)" fill="black"/>
<path d="M10.8625 0H0V10.8625H10.8625V0Z" transform="translate(32.5864 130.344)" fill="black"/>
<path d="M10.8625 0H0V10.8625H10.8625V0Z" transform="translate(65.1718 130.344)" fill="black"/>
<path d="M10.8625 0H0V10.8625H10.8625V0Z" transform="translate(130.344 130.344)" fill="black"/>
<path d="M10.8625 0H0V10.8625H10.8625V0Z" transform="translate(141.207 130.344)" fill="black"/>
<path d="M10.8625 0H0V10.8625H10.8625V0Z" transform="translate(162.931 130.344)" fill="black"/>
<path d="M10.8625 0H0V10.8625H10.8625V0Z" transform="translate(173.793 130.344)" fill="black"/>
<path d="M10.8625 0H0V10.8625H10.8625V0Z" transform="translate(195.517 130.344)" fill="black"/>
<path d="M10.8625 0H0V10.8625H10.8625V0Z" transform="translate(206.378 130.344)" fill="black"/>
<path d="M10.8625 0H0V10.8625H10.8625V0Z" transform="translate(238.965 130.344)" fill="black"/>
<path d="M10.8625 0H0V10.8625H10.8625V0Z" transform="translate(304.137 130.344)" fill="black"/>
<path d="M10.8625 0H0V10.8625H10.8625V0Z" transform="translate(10.8613 141.207)" fill="black"/>
<path d="M10.8625 0H0V10.8625H10.8625V0Z" transform="translate(21.7239 141.207)" fill="black"/>
<path d="M10.8625 0H0V10.8625H10.8625V0Z" transform="translate(32.5864 141.207)" fill="black"/>
<path d="M10.8625 0H0V10.8625H10.8625V0Z" transform="translate(54.3102 141.207)" fill="black"/>
<path d="M10.8625 0H0V10.8625H10.8625V0Z" transform="translate(76.0341 141.207)" fill="black"/>
<path d="M10.8625 0H0V10.8625H10.8625V0Z" transform="translate(97.7581 141.207)" fill="black"/>
<path d="M10.8625 0H0V10.8625H10.8625V0Z" transform="translate(108.62 141.207)" fill="black"/>
<path d="M10.8625 0H0V10.8625H10.8625V0Z" transform="translate(119.482 141.207)" fill="black"/>
<path d="M10.8625 0H0V10.8625H10.8625V0Z" transform="translate(173.793 141.207)" fill="black"/>
<path d="M10.8625 0H0V10.8625H10.8625V0Z" transform="translate(184.655 141.207)" fill="black"/>
<path d="M10.8625 0H0V10.8625H10.8625V0Z" transform="translate(206.378 141.207)" fill="black"/>
<path d="M10.8625 0H0V10.8625H10.8625V0Z" transform="translate(217.241 141.207)" fill="black"/>
<path d="M10.8625 0H0V10.8625H10.8625V0Z" transform="translate(228.103 141.207)" fill="black"/>
<path d="M10.8625 0H0V10.8625H10.8625V0Z" transform="translate(238.965 141.207)" fill="black"/>
<path d="M10.8625 0H0V10.8625H10.8625V0Z" transform="translate(249.827 141.207)" fill="black"/>
<path d="M10.8625 0H0V10.8625H10.8625V0Z" transform="translate(293.275 141.207)" fill="black"/>
<path d="M10.8625 0H0V10.8625H10.8625V0Z" transform="translate(304.137 141.207)" fill="black"/>
<path d="M10.8625 0H0V10.8625H10.8625V0Z" transform="translate(10.8613 152.069)" fill="black"/>
<path d="M10.8625 0H0V10.8625H10.8625V0Z" transform="translate(21.7239 152.069)" fill="black"/>
<path d="M10.8625 0H0V10.8625H10.8625V0Z" transform="translate(54.3102 152.069)" fill="black"/>
<path d="M10.8625 0H0V10.8625H10.8625V0Z" transform="translate(65.1718 152.069)" fill="black"/>
<path d="M10.8625 0H0V10.8625H10.8625V0Z" transform="translate(86.8966 152.069)" fill="black"/>
<path d="M10.8625 0H0V10.8625H10.8625V0Z" transform="translate(97.7581 152.069)" fill="black"/>
<path d="M10.8625 0H0V10.8625H10.8625V0Z" transform="translate(130.344 152.069)" fill="black"/>
<path d="M10.8625 0H0V10.8625H10.8625V0Z" transform="translate(141.207 152.069)" fill="black"/>
<path d="M10.8625 0H0V10.8625H10.8625V0Z" transform="translate(152.068 152.069)" fill="black"/>
<path d="M10.8625 0H0V10.8625H10.8625V0Z" transform="translate(173.793 152.069)" fill="black"/>
<path d="M10.8625 0H0V10.8625H10.8625V0Z" transform="translate(206.378 152.069)" fill="black"/>
<path d="M10.8625 0H0V10.8625H10.8625V0Z" transform="translate(228.103 152.069)" fill="black"/>
<path d="M10.8625 0H0V10.8625H10.8625V0Z" transform="translate(238.965 152.069)" fill="black"/>
<path d="M10.8625 0H0V10.8625H10.8625V0Z" transform="translate(304.137 152.069)" fill="black"/>
<path d="M10.8625 0H0V10.8625H10.8625V0Z" transform="translate(32.5864 162.93)" fill="black"/>
<path d="M10.8625 0H0V10.8625H10.8625V0Z" transform="translate(76.0341 162.93)" fill="black"/>
<path d="M10.8625 0H0V10.8625H10.8625V0Z" transform="translate(86.8966 162.93)" fill="black"/>
<path d="M10.8625 0H0V10.8625H10.8625V0Z" transform="translate(130.344 162.93)" fill="black"/>
<path d="M10.8625 0H0V10.8625H10.8625V0Z" transform="translate(152.068 162.93)" fill="black"/>
<path d="M10.8625 0H0V10.8625H10.8625V0Z" transform="translate(162.931 162.93)" fill="black"/>
<path d="M10.8625 0H0V10.8625H10.8625V0Z" transform="translate(173.793 162.93)" fill="black"/>
<path d="M10.8625 0H0V10.8625H10.8625V0Z" transform="translate(206.378 162.93)" fill="black"/>
<path d="M10.8625 0H0V10.8625H10.8625V0Z" transform="translate(228.103 162.93)" fill="black"/>
<path d="M10.8625 0H0V10.8625H10.8625V0Z" transform="translate(238.965 162.93)" fill="black"/>
<path d="M10.8625 0H0V10.8625H10.8625V0Z" transform="translate(249.827 162.93)" fill="black"/>
<path d="M10.8625 0H0V10.8625H10.8625V0Z" transform="translate(260.69 162.93)" fill="black"/>
<path d="M10.8625 0H0V10.8625H10.8625V0Z" transform="translate(0 173.793)" fill="black"/>
<path d="M10.8625 0H0V10.8625H10.8625V0Z" transform="translate(10.8613 173.793)" fill="black"/>
<path d="M10.8625 0H0V10.8625H10.8625V0Z" transform="translate(65.1718 173.793)" fill="black"/>
<path d="M10.8625 0H0V10.8625H10.8625V0Z" transform="translate(108.62 173.793)" fill="black"/>
<path d="M10.8625 0H0V10.8625H10.8625V0Z" transform="translate(119.482 173.793)" fill="black"/>
<path d="M10.8625 0H0V10.8625H10.8625V0Z" transform="translate(141.207 173.793)" fill="black"/>
<path d="M10.8625 0H0V10.8625H10.8625V0Z" transform="translate(152.068 173.793)" fill="black"/>
<path d="M10.8625 0H0V10.8625H10.8625V0Z" transform="translate(206.378 173.793)" fill="black"/>
<path d="M10.8625 0H0V10.8625H10.8625V0Z" transform="translate(238.965 173.793)" fill="black"/>
<path d="M10.8625 0H0V10.8625H10.8625V0Z" transform="translate(249.827 173.793)" fill="black"/>
<path d="M10.8625 0H0V10.8625H10.8625V0Z" transform="translate(304.137 173.793)" fill="black"/>
<path d="M10.8625 0H0V10.8625H10.8625V0Z" transform="translate(32.5864 184.655)" fill="black"/>
<path d="M10.8625 0H0V10.8625H10.8625V0Z" transform="translate(43.4478 184.655)" fill="black"/>
<path d="M10.8625 0H0V10.8625H10.8625V0Z" transform="translate(76.0341 184.655)" fill="black"/>
<path d="M10.8625 0H0V10.8625H10.8625V0Z" transform="translate(119.482 184.655)" fill="black"/>
<path d="M10.8625 0H0V10.8625H10.8625V0Z" transform="translate(130.344 184.655)" fill="black"/>
<path d="M10.8625 0H0V10.8625H10.8625V0Z" transform="translate(141.207 184.655)" fill="black"/>
<path d="M10.8625 0H0V10.8625H10.8625V0Z" transform="translate(152.068 184.655)" fill="black"/>
<path d="M10.8625 0H0V10.8625H10.8625V0Z" transform="translate(206.378 184.655)" fill="black"/>
<path d="M10.8625 0H0V10.8625H10.8625V0Z" transform="translate(217.241 184.655)" fill="black"/>
<path d="M10.8625 0H0V10.8625H10.8625V0Z" transform="translate(238.965 184.655)" fill="black"/>
<path d="M10.8625 0H0V10.8625H10.8625V0Z" transform="translate(249.827 184.655)" fill="black"/>
<path d="M10.8625 0H0V10.8625H10.8625V0Z" transform="translate(282.414 184.655)" fill="black"/>
<path d="M10.8625 0H0V10.8625H10.8625V0Z" transform="translate(293.275 184.655)" fill="black"/>
<path d="M10.8625 0H0V10.8625H10.8625V0Z" transform="translate(304.137 184.655)" fill="black"/>
<path d="M10.8625 0H0V10.8625H10.8625V0Z" transform="translate(0 195.517)" fill="black"/>
<path d="M10.8625 0H0V10.8625H10.8625V0Z" transform="translate(10.8613 195.517)" fill="black"/>
<path d="M10.8625 0H0V10.8625H10.8625V0Z" transform="translate(21.7239 195.517)" fill="black"/>
<path d="M10.8625 0H0V10.8625H10.8625V0Z" transform="translate(43.4478 195.517)" fill="black"/>
<path d="M10.8625 0H0V10.8625H10.8625V0Z" transform="translate(65.1718 195.517)" fill="black"/>
<path d="M10.8625 0H0V10.8625H10.8625V0Z" transform="translate(76.0341 195.517)" fill="black"/>
<path d="M10.8625 0H0V10.8625H10.8625V0Z" transform="translate(86.8966 195.517)" fill="black"/>
<path d="M10.8625 0H0V10.8625H10.8625V0Z" transform="translate(130.344 195.517)" fill="black"/>
<path d="M10.8625 0H0V10.8625H10.8625V0Z" transform="translate(162.931 195.517)" fill="black"/>
<path d="M10.8625 0H0V10.8625H10.8625V0Z" transform="translate(195.517 195.517)" fill="black"/>
<path d="M10.8625 0H0V10.8625H10.8625V0Z" transform="translate(206.378 195.517)" fill="black"/>
<path d="M10.8625 0H0V10.8625H10.8625V0Z" transform="translate(217.241 195.517)" fill="black"/>
<path d="M10.8625 0H0V10.8625H10.8625V0Z" transform="translate(228.103 195.517)" fill="black"/>
<path d="M10.8625 0H0V10.8625H10.8625V0Z" transform="translate(238.965 195.517)" fill="black"/>
<path d="M10.8625 0H0V10.8625H10.8625V0Z" transform="translate(249.827 195.517)" fill="black"/>
<path d="M10.8625 0H0V10.8625H10.8625V0Z" transform="translate(271.551 195.517)" fill="black"/>
<path d="M10.8625 0H0V10.8625H10.8625V0Z" transform="translate(304.137 195.517)" fill="black"/>
<path d="M10.8625 0H0V10.8625H10.8625V0Z" transform="translate(21.7239 206.379)" fill="black"/>
<path d="M10.8625 0H0V10.8625H10.8625V0Z" transform="translate(32.5864 206.379)" fill="black"/>
<path d="M10.8625 0H0V10.8625H10.8625V0Z" transform="translate(43.4478 206.379)" fill="black"/>
<path d="M10.8625 0H0V10.8625H10.8625V0Z" transform="translate(54.3102 206.379)" fill="black"/>
<path d="M10.8625 0H0V10.8625H10.8625V0Z" transform="translate(97.7581 206.379)" fill="black"/>
<path d="M10.8625 0H0V10.8625H10.8625V0Z" transform="translate(108.62 206.379)" fill="black"/>
<path d="M10.8625 0H0V10.8625H10.8625V0Z" transform="translate(119.482 206.379)" fill="black"/>
<path d="M10.8625 0H0V10.8625H10.8625V0Z" transform="translate(141.207 206.379)" fill="black"/>
<path d="M10.8625 0H0V10.8625H10.8625V0Z" transform="translate(195.517 206.379)" fill="black"/>
<path d="M10.8625 0H0V10.8625H10.8625V0Z" transform="translate(206.378 206.379)" fill="black"/>
<path d="M10.8625 0H0V10.8625H10.8625V0Z" transform="translate(217.241 206.379)" fill="black"/>
<path d="M10.8625 0H0V10.8625H10.8625V0Z" transform="translate(228.103 206.379)" fill="black"/>
<path d="M10.8625 0H0V10.8625H10.8625V0Z" transform="translate(0 217.24)" fill="black"/>
<path d="M10.8625 0H0V10.8625H10.8625V0Z" transform="translate(10.8613 217.24)" fill="black"/>
<path d="M10.8625 0H0V10.8625H10.8625V0Z" transform="translate(21.7239 217.24)" fill="black"/>
<path d="M10.8625 0H0V10.8625H10.8625V0Z" transform="translate(32.5864 217.24)" fill="black"/>
<path d="M10.8625 0H0V10.8625H10.8625V0Z" transform="translate(43.4478 217.24)" fill="black"/>
<path d="M10.8625 0H0V10.8625H10.8625V0Z" transform="translate(54.3102 217.24)" fill="black"/>
<path d="M10.8625 0H0V10.8625H10.8625V0Z" transform="translate(65.1718 217.24)" fill="black"/>
<path d="M10.8625 0H0V10.8625H10.8625V0Z" transform="translate(76.0341 217.24)" fill="black"/>
<path d="M10.8625 0H0V10.8625H10.8625V0Z" transform="translate(86.8966 217.24)" fill="black"/>
<path d="M10.8625 0H0V10.8625H10.8625V0Z" transform="translate(108.62 217.24)" fill="black"/>
<path d="M10.8625 0H0V10.8625H10.8625V0Z" transform="translate(130.344 217.24)" fill="black"/>
<path d="M10.8625 0H0V10.8625H10.8625V0Z" transform="translate(141.207 217.24)" fill="black"/>
<path d="M10.8625 0H0V10.8625H10.8625V0Z" transform="translate(162.931 217.24)" fill="black"/>
<path d="M10.8625 0H0V10.8625H10.8625V0Z" transform="translate(173.793 217.24)" fill="black"/>
<path d="M10.8625 0H0V10.8625H10.8625V0Z" transform="translate(217.241 217.24)" fill="black"/>
<path d="M10.8625 0H0V10.8625H10.8625V0Z" transform="translate(228.103 217.24)" fill="black"/>
<path d="M10.8625 0H0V10.8625H10.8625V0Z" transform="translate(238.965 217.24)" fill="black"/>
<path d="M10.8625 0H0V10.8625H10.8625V0Z" transform="translate(249.827 217.24)" fill="black"/>
<path d="M10.8625 0H0V10.8625H10.8625V0Z" transform="translate(260.69 217.24)" fill="black"/>
<path d="M10.8625 0H0V10.8625H10.8625V0Z" transform="translate(271.551 217.24)" fill="black"/>
<path d="M10.8625 0H0V10.8625H10.8625V0Z" transform="translate(293.275 217.24)" fill="black"/>
<path d="M10.8625 0H0V10.8625H10.8625V0Z" transform="translate(86.8966 228.103)" fill="black"/>
<path d="M10.8625 0H0V10.8625H10.8625V0Z" transform="translate(97.7581 228.103)" fill="black"/>
<path d="M10.8625 0H0V10.8625H10.8625V0Z" transform="translate(108.62 228.103)" fill="black"/>
<path d="M10.8625 0H0V10.8625H10.8625V0Z" transform="translate(173.793 228.103)" fill="black"/>
<path d="M10.8625 0H0V10.8625H10.8625V0Z" transform="translate(184.655 228.103)" fill="black"/>
<path d="M10.8625 0H0V10.8625H10.8625V0Z" transform="translate(217.241 228.103)" fill="black"/>
<path d="M10.8625 0H0V10.8625H10.8625V0Z" transform="translate(260.69 228.103)" fill="black"/>
<path d="M10.8625 0H0V10.8625H10.8625V0Z" transform="translate(271.551 228.103)" fill="black"/>
<path d="M10.8625 0H0V10.8625H10.8625V0Z" transform="translate(282.414 228.103)" fill="black"/>
<path d="M10.8625 0H0V10.8625H10.8625V0Z" transform="translate(304.137 228.103)" fill="black"/>
<path d="M10.8625 0H0V10.8625H10.8625V0Z" transform="translate(86.8966 238.966)" fill="black"/>
<path d="M10.8625 0H0V10.8625H10.8625V0Z" transform="translate(108.62 238.966)" fill="black"/>
<path d="M10.8625 0H0V10.8625H10.8625V0Z" transform="translate(141.207 238.966)" fill="black"/>
<path d="M10.8625 0H0V10.8625H10.8625V0Z" transform="translate(152.068 238.966)" fill="black"/>
<path d="M10.8625 0H0V10.8625H10.8625V0Z" transform="translate(173.793 238.966)" fill="black"/>
<path d="M10.8625 0H0V10.8625H10.8625V0Z" transform="translate(217.241 238.966)" fill="black"/>
<path d="M10.8625 0H0V10.8625H10.8625V0Z" transform="translate(238.965 238.966)" fill="black"/>
<path d="M10.8625 0H0V10.8625H10.8625V0Z" transform="translate(260.69 238.966)" fill="black"/>
<path d="M10.8625 0H0V10.8625H10.8625V0Z" transform="translate(304.137 238.966)" fill="black"/>
<path d="M10.8625 0H0V10.8625H10.8625V0Z" transform="translate(97.7581 249.828)" fill="black"/>
<path d="M10.8625 0H0V10.8625H10.8625V0Z" transform="translate(108.62 249.828)" fill="black"/>
<path d="M10.8625 0H0V10.8625H10.8625V0Z" transform="translate(152.068 249.828)" fill="black"/>
<path d="M10.8625 0H0V10.8625H10.8625V0Z" transform="translate(162.931 249.828)" fill="black"/>
<path d="M10.8625 0H0V10.8625H10.8625V0Z" transform="translate(173.793 249.828)" fill="black"/>
<path d="M10.8625 0H0V10.8625H10.8625V0Z" transform="translate(195.517 249.828)" fill="black"/>
<path d="M10.8625 0H0V10.8625H10.8625V0Z" transform="translate(217.241 249.828)" fill="black"/>
<path d="M10.8625 0H0V10.8625H10.8625V0Z" transform="translate(260.69 249.828)" fill="black"/>
<path d="M10.8625 0H0V10.8625H10.8625V0Z" transform="translate(304.137 249.828)" fill="black"/>
<path d="M10.8625 0H0V10.8625H10.8625V0Z" transform="translate(97.7581 260.69)" fill="black"/>
<path d="M10.8625 0H0V10.8625H10.8625V0Z" transform="translate(108.62 260.69)" fill="black"/>
<path d="M10.8625 0H0V10.8625H10.8625V0Z" transform="translate(119.482 260.69)" fill="black"/>
<path d="M10.8625 0H0V10.8625H10.8625V0Z" transform="translate(130.344 260.69)" fill="black"/>
<path d="M10.8625 0H0V10.8625H10.8625V0Z" transform="translate(141.207 260.69)" fill="black"/>
<path d="M10.8625 0H0V10.8625H10.8625V0Z" transform="translate(152.068 260.69)" fill="black"/>
<path d="M10.8625 0H0V10.8625H10.8625V0Z" transform="translate(173.793 260.69)" fill="black"/>
<path d="M10.8625 0H0V10.8625H10.8625V0Z" transform="translate(206.378 260.69)" fill="black"/>
<path d="M10.8625 0H0V10.8625H10.8625V0Z" transform="translate(217.241 260.69)" fill="black"/>
<path d="M10.8625 0H0V10.8625H10.8625V0Z" transform="translate(228.103 260.69)" fill="black"/>
<path d="M10.8625 0H0V10.8625H10.8625V0Z" transform="translate(238.965 260.69)" fill="black"/>
<path d="M10.8625 0H0V10.8625H10.8625V0Z" transform="translate(249.827 260.69)" fill="black"/>
<path d="M10.8625 0H0V10.8625H10.8625V0Z" transform="translate(260.69 260.69)" fill="black"/>
<path d="M10.8625 0H0V10.8625H10.8625V0Z" transform="translate(271.551 260.69)" fill="black"/>
<path d="M10.8625 0H0V10.8625H10.8625V0Z" transform="translate(108.62 271.551)" fill="black"/>
<path d="M10.8625 0H0V10.8625H10.8625V0Z" transform="translate(119.482 271.551)" fill="black"/>
<path d="M10.8625 0H0V10.8625H10.8625V0Z" transform="translate(130.344 271.551)" fill="black"/>
<path d="M10.8625 0H0V10.8625H10.8625V0Z" transform="translate(141.207 271.551)" fill="black"/>
<path d="M10.8625 0H0V10.8625H10.8625V0Z" transform="translate(152.068 271.551)" fill="black"/>
<path d="M10.8625 0H0V10.8625H10.8625V0Z" transform="translate(184.655 271.551)" fill="black"/>
<path d="M10.8625 0H0V10.8625H10.8625V0Z" transform="translate(206.378 271.551)" fill="black"/>
<path d="M10.8625 0H0V10.8625H10.8625V0Z" transform="translate(228.103 271.551)" fill="black"/>
<path d="M10.8625 0H0V10.8625H10.8625V0Z" transform="translate(249.827 271.551)" fill="black"/>
<path d="M10.8625 0H0V10.8625H10.8625V0Z" transform="translate(260.69 271.551)" fill="black"/>
<path d="M10.8625 0H0V10.8625H10.8625V0Z" transform="translate(271.551 271.551)" fill="black"/>
<path d="M10.8625 0H0V10.8625H10.8625V0Z" transform="translate(282.414 271.551)" fill="black"/>
<path d="M10.8625 0H0V10.8625H10.8625V0Z" transform="translate(293.275 271.551)" fill="black"/>
<path d="M10.8625 0H0V10.8625H10.8625V0Z" transform="translate(86.8966 282.413)" fill="black"/>
<path d="M10.8625 0H0V10.8625H10.8625V0Z" transform="translate(97.7581 282.413)" fill="black"/>
<path d="M10.8625 0H0V10.8625H10.8625V0Z" transform="translate(119.482 282.413)" fill="black"/>
<path d="M10.8625 0H0V10.8625H10.8625V0Z" transform="translate(152.068 282.413)" fill="black"/>
<path d="M10.8625 0H0V10.8625H10.8625V0Z" transform="translate(162.931 282.413)" fill="black"/>
<path d="M10.8625 0H0V10.8625H10.8625V0Z" transform="translate(184.655 282.413)" fill="black"/>
<path d="M10.8625 0H0V10.8625H10.8625V0Z" transform="translate(217.241 282.413)" fill="black"/>
<path d="M10.8625 0H0V10.8625H10.8625V0Z" transform="translate(228.103 282.413)" fill="black"/>
<path d="M10.8625 0H0V10.8625H10.8625V0Z" transform="translate(260.69 282.413)" fill="black"/>
<path d="M10.8625 0H0V10.8625H10.8625V0Z" transform="translate(293.275 282.413)" fill="black"/>
<path d="M10.8625 0H0V10.8625H10.8625V0Z" transform="translate(304.137 282.413)" fill="black"/>
<path d="M10.8625 0H0V10.8625H10.8625V0Z" transform="translate(97.7581 293.276)" fill="black"/>
<path d="M10.8625 0H0V10.8625H10.8625V0Z" transform="translate(119.482 293.276)" fill="black"/>
<path d="M10.8625 0H0V10.8625H10.8625V0Z" transform="translate(141.207 293.276)" fill="black"/>
<path d="M10.8625 0H0V10.8625H10.8625V0Z" transform="translate(162.931 293.276)" fill="black"/>
<path d="M10.8625 0H0V10.8625H10.8625V0Z" transform="translate(173.793 293.276)" fill="black"/>
<path d="M10.8625 0H0V10.8625H10.8625V0Z" transform="translate(195.517 293.276)" fill="black"/>
<path d="M10.8625 0H0V10.8625H10.8625V0Z" transform="translate(217.241 293.276)" fill="black"/>
<path d="M10.8625 0H0V10.8625H10.8625V0Z" transform="translate(228.103 293.276)" fill="black"/>
<path d="M10.8625 0H0V10.8625H10.8625V0Z" transform="translate(238.965 293.276)" fill="black"/>
<path d="M10.8625 0H0V10.8625H10.8625V0Z" transform="translate(249.827 293.276)" fill="black"/>
<path d="M10.8625 0H0V10.8625H10.8625V0Z" transform="translate(260.69 293.276)" fill="black"/>
<path d="M10.8625 0H0V10.8625H10.8625V0Z" transform="translate(271.551 293.276)" fill="black"/>
<path d="M10.8625 0H0V10.8625H10.8625V0Z" transform="translate(86.8966 304.138)" fill="black"/>
<path d="M10.8625 0H0V10.8625H10.8625V0Z" transform="translate(130.344 304.138)" fill="black"/>
<path d="M10.8625 0H0V10.8625H10.8625V0Z" transform="translate(152.068 304.138)" fill="black"/>
<path d="M10.8625 0H0V10.8625H10.8625V0Z" transform="translate(173.793 304.138)" fill="black"/>
<path d="M10.8625 0H0V10.8625H10.8625V0Z" transform="translate(195.517 304.138)" fill="black"/>
<path d="M10.8625 0H0V10.8625H10.8625V0Z" transform="translate(217.241 304.138)" fill="black"/>
<path d="M10.8625 0H0V10.8625H10.8625V0Z" transform="translate(228.103 304.138)" fill="black"/>
<path d="M10.8625 0H0V10.8625H10.8625V0Z" transform="translate(238.965 304.138)" fill="black"/>
<path d="M10.8625 0H0V10.8625H10.8625V0Z" transform="translate(249.827 304.138)" fill="black"/>
<path d="M10.8625 0H0V10.8625H10.8625V0Z" transform="translate(260.69 304.138)" fill="black"/>
<path d="M10.8625 0H0V10.8625H10.8625V0Z" transform="translate(271.551 304.138)" fill="black"/>
<path d="M10.8625 0H0V10.8625H10.8625V0Z" transform="translate(304.137 304.138)" fill="black"/>
<path d="M64.6295 0H0V76.0341H76.0341V0H64.6295ZM64.6295 64.6295H11.4057V11.4057H64.6295V64.6295Z" fill="black"/>
<path d="M64.6295 0H0V76.0341H76.0341V0H64.6295ZM64.6295 64.6295H11.4057V11.4057H64.6295V64.6295Z" transform="translate(238.965)" fill="black"/>
<path d="M64.6295 0H0V76.0341H76.0341V0H64.6295ZM64.6295 64.6295H11.4057V11.4057H64.6295V64.6295Z" transform="translate(0 238.966)" fill="black"/>
<path d="M32.5864 0H0V32.5864H32.5864V0Z" transform="translate(21.7239 21.7233)" fill="black"/>
<path d="M32.5864 0H0V32.5864H32.5864V0Z" transform="translate(260.69 21.7233)" fill="black"/>
<path d="M32.5864 0H0V32.5864H32.5864V0Z" transform="translate(21.7239 260.69)" fill="black"/>
</svg>
