<svg width="24" height="24" viewBox="0 0 24 24" fill="none" xmlns="http://www.w3.org/2000/svg">
<path d="M13 12.08C12.24 12.08 11.56 12.38 11.04 12.85L5.91 9.7C5.96 9.47 6 9.24 6 9C6 8.76 5.96 8.53 5.91 8.3L10.96 5.19C11.5 5.69 12.21 6 13 6C14.66 6 16 4.66 16 3C16 1.34 14.66 0 13 0C11.34 0 10 1.34 10 3C10 3.24 10.04 3.47 10.09 3.7L5.04 6.81C4.5 6.31 3.79 6 3 6C1.34 6 0 7.34 0 9C0 10.66 1.34 12 3 12C3.79 12 4.5 11.69 5.04 11.19L10.16 14.35C10.11 14.56 10.08 14.78 10.08 15C10.08 16.61 11.39 17.92 13 17.92C14.61 17.92 15.92 16.61 15.92 15C15.92 13.39 14.61 12.08 13 12.08Z" transform="translate(4 3)" fill="white"/>
</svg>
