<svg width="24" height="24" viewBox="0 0 24 24" fill="none" xmlns="http://www.w3.org/2000/svg">
<path d="M7 13V5C7 3.9 7.89 3 9 3H18V2C18 0.9 17.1 0 16 0H2C0.89 0 0 0.9 0 2V16C0 17.1 0.89 18 2 18H16C17.1 18 18 17.1 18 16V15H9C7.89 15 7 14.1 7 13Z" transform="translate(3 3)" fill="black"/>
<path d="M1 0C0.45 0 0 0.45 0 1V7C0 7.55 0.45 8 1 8H10V0H1ZM4 5.5C3.17 5.5 2.5 4.83 2.5 4C2.5 3.17 3.17 2.5 4 2.5C4.83 2.5 5.5 3.17 5.5 4C5.5 4.83 4.83 5.5 4 5.5Z" transform="translate(12 8)" fill="black"/>
</svg>
