<svg width="24" height="24" viewBox="0 0 24 24" fill="none" xmlns="http://www.w3.org/2000/svg">
<path d="M11.5515 0.00349014C6.46153 -0.13651 2.29153 3.95349 2.29153 9.00349H0.501534C0.0515345 9.00349 -0.168466 9.54349 0.151534 9.85349L2.94153 12.6535C3.14153 12.8535 3.45153 12.8535 3.65153 12.6535L6.44153 9.85349C6.75153 9.54349 6.53153 9.00349 6.08153 9.00349H4.29153C4.29153 5.10349 7.47153 1.95349 11.3915 2.00349C15.1115 2.05349 18.2415 5.18349 18.2915 8.90349C18.3415 12.8135 15.1915 16.0035 11.2915 16.0035C9.68153 16.0035 8.19153 15.4535 7.01153 14.5235C6.61153 14.2135 6.05153 14.2435 5.69153 14.6035C5.27153 15.0235 5.30153 15.7335 5.77153 16.0935C7.29153 17.2935 9.20153 18.0035 11.2915 18.0035C16.3415 18.0035 20.4315 13.8335 20.2915 8.74349C20.1615 4.05349 16.2415 0.13349 11.5515 0.00349014Z" transform="translate(1.7085 2.99646)" fill="#02A7F7"/>
<path d="M0.75 0C0.34 0 0 0.34 0 0.75V4.43C0 4.78 0.19 5.11 0.49 5.29L3.61 7.14C3.97 7.35 4.43 7.23 4.64 6.88C4.85 6.52 4.73 6.06 4.38 5.85L1.5 4.14V0.74C1.5 0.34 1.16 0 0.75 0Z" transform="translate(12 7.99976)" fill="#02A7F7"/>
</svg>
