<svg width="24" height="24" viewBox="0 0 24 24" fill="none" xmlns="http://www.w3.org/2000/svg">
<path d="M10 0C4.48 0 0 4.48 0 10C0 15.52 4.48 20 10 20C15.52 20 20 15.52 20 10C20 4.48 15.52 0 10 0ZM10 18C5.59 18 2 14.41 2 10C2 5.59 5.59 2 10 2C14.41 2 18 5.59 18 10C18 14.41 14.41 18 10 18Z" transform="translate(2 2)" fill="#02A7F7"/>
<path d="M2 0H0V2H2V0Z" transform="translate(11 16)" fill="#02A7F7"/>
<path d="M4.47069 0.0439273C2.41069 -0.256073 0.590692 1.01393 0.0406922 2.83393C-0.139308 3.41393 0.300692 4.00393 0.910692 4.00393H1.11069C1.52069 4.00393 1.85069 3.71393 1.99069 3.33393C2.31069 2.44393 3.26069 1.83393 4.29069 2.05393C5.24069 2.25393 5.94069 3.18393 5.86069 4.15393C5.76069 5.49393 4.24069 5.78393 3.41069 7.03393C3.41069 7.04393 3.40069 7.04393 3.40069 7.05393C3.39069 7.07393 3.38069 7.08393 3.37069 7.10393C3.28069 7.25393 3.19069 7.42393 3.12069 7.60393C3.11069 7.63393 3.09069 7.65393 3.08069 7.68393C3.07069 7.70393 3.07069 7.72393 3.06069 7.75393C2.94069 8.09393 2.86069 8.50393 2.86069 9.00393H3.99069H4.86069C4.86069 8.58393 4.97069 8.23393 5.14069 7.93393C5.16069 7.90393 5.17069 7.87393 5.19069 7.84393C5.27069 7.70393 5.37069 7.57393 5.47069 7.45393C5.48069 7.44393 5.49069 7.42393 5.50069 7.41393C5.60069 7.29393 5.71069 7.18393 5.83069 7.07393C6.79069 6.16393 8.09069 5.42393 7.82069 3.51393C7.58069 1.77393 6.21069 0.303927 4.47069 0.0439273Z" transform="translate(8.13916 5.99609)" fill="#02A7F7"/>
</svg>
