<svg width="58" height="11" viewBox="0 0 58 11" fill="none" xmlns="http://www.w3.org/2000/svg">
<path opacity="0.4" d="M2.5 0.5H19.5C20.6046 0.5 21.5 1.39543 21.5 2.5V8C21.5 9.10457 20.6046 10 19.5 10H18.4687H2.5C1.39543 10 0.5 9.10457 0.5 8V2.5C0.5 1.39543 1.39543 0.5 2.5 0.5Z" transform="translate(33)" stroke="black"/>
<path fill-rule="evenodd" clip-rule="evenodd" d="M0 3.87396C0.86261 3.65195 1.5 2.86893 1.5 1.93698C1.5 1.00504 0.86261 0.222015 0 0V3.87396Z" transform="translate(56 3.5)" fill="black" fill-opacity="0.4"/>
<path fill-rule="evenodd" clip-rule="evenodd" d="M0 1C0 0.447715 0.447715 0 1 0H17C17.5523 0 18 0.447715 18 1V5.5C18 6.05228 17.5523 6.5 17 6.5H1C0.447715 6.5 0 6.05228 0 5.5V1Z" transform="translate(35 2)" fill="black"/>
<path d="M2.24414 8.6543H3.29883V0.199219H2.25L0 1.81641V2.92969L2.15039 1.37109H2.24414V8.6543Z" transform="translate(0.568359 0.845703)" fill="black"/>
<path d="M8.66602 8.85352C10.5645 8.85352 11.6543 7.24805 11.6543 4.44141C11.6543 1.64062 10.5469 0 8.66602 0C6.77344 0 5.66602 1.63477 5.66602 4.42383C5.66602 7.23633 6.76172 8.85352 8.66602 8.85352ZM8.66602 7.93359C7.41797 7.93359 6.72656 6.68555 6.72656 4.42383C6.72656 2.19141 7.42969 0.925781 8.66602 0.925781C9.90234 0.925781 10.5938 2.17969 10.5938 4.42383C10.5938 6.69141 9.91406 7.93359 8.66602 7.93359Z" transform="translate(0.568359 0.845703)" fill="black"/>
<path d="M16.2246 8.85352C18.123 8.85352 19.2129 7.24805 19.2129 4.44141C19.2129 1.64062 18.1055 0 16.2246 0C14.332 0 13.2246 1.63477 13.2246 4.42383C13.2246 7.23633 14.3203 8.85352 16.2246 8.85352ZM16.2246 7.93359C14.9766 7.93359 14.2852 6.68555 14.2852 4.42383C14.2852 2.19141 14.9883 0.925781 16.2246 0.925781C17.4609 0.925781 18.1523 2.17969 18.1523 4.42383C18.1523 6.69141 17.4727 7.93359 16.2246 7.93359Z" transform="translate(0.568359 0.845703)" fill="black"/>
<path d="M24.0703 2.08594C24.0703 0.890625 23.3262 0.0527344 22.2715 0.0527344C21.2168 0.0527344 20.4668 0.896484 20.4668 2.08594C20.4668 3.28125 21.2168 4.125 22.2715 4.125C23.3262 4.125 24.0703 3.28125 24.0703 2.08594ZM22.2715 3.375C21.75 3.375 21.4043 2.86523 21.4043 2.08594C21.4043 1.30664 21.7441 0.802734 22.2715 0.802734C22.7988 0.802734 23.1328 1.29492 23.1328 2.08594C23.1328 2.85938 22.7871 3.375 22.2715 3.375ZM22.1777 8.6543L25.0781 4.6875L28.3594 0.199219H27.293L24.3281 4.24805L21.0996 8.6543H22.1777ZM28.9629 6.76172C28.9629 5.56641 28.2188 4.72852 27.1641 4.72852C26.1094 4.72852 25.3594 5.57227 25.3594 6.76172C25.3594 7.95703 26.1094 8.80078 27.1641 8.80078C28.2188 8.80078 28.9629 7.95703 28.9629 6.76172ZM27.1641 8.05078C26.6426 8.05078 26.2969 7.54102 26.2969 6.76172C26.2969 5.98242 26.6367 5.47852 27.1641 5.47852C27.6914 5.47852 28.0254 5.9707 28.0254 6.76172C28.0254 7.53516 27.6797 8.05078 27.1641 8.05078Z" transform="translate(0.568359 0.845703)" fill="black"/>
</svg>
