<svg width="61" height="11" viewBox="0 0 61 11" fill="none" xmlns="http://www.w3.org/2000/svg">
<path fill-rule="evenodd" clip-rule="evenodd" d="M6.48755 0C9.0506 0 11.363 1.03943 13 2.70688L11.9119 3.76404C10.5539 2.36554 8.62598 1.49222 6.48755 1.49222C4.36292 1.49222 2.44611 2.35431 1.08954 3.73709L0 2.68164C1.63556 1.02896 3.9375 0 6.48755 0ZM10.8235 4.82144C9.74475 3.69174 8.20142 2.98447 6.48755 2.98447C4.78827 2.98447 3.25659 3.67978 2.17926 4.79269L3.26929 5.8486C4.0672 5.00537 5.21362 4.47668 6.48755 4.47668C7.77686 4.47668 8.93561 5.01825 9.73462 5.87933L10.8235 4.82144ZM8.64441 6.93851C8.1264 6.34543 7.35236 5.9689 6.48755 5.9689C5.63904 5.9689 4.87787 6.33142 4.36017 6.9053L6.52252 9L8.64441 6.93851Z" transform="translate(48 1.5)" fill="black"/>
<path d="M0 6.44531C0.111328 7.9043 1.34766 8.85352 3.14062 8.85352C5.07422 8.85352 6.29883 7.86328 6.29883 6.31055C6.29883 5.06836 5.5957 4.38867 3.84375 3.94922L2.95898 3.71484C1.79297 3.41602 1.33008 3.03516 1.33008 2.37305C1.33008 1.51758 2.07422 0.955078 3.19922 0.955078C4.25391 0.955078 4.96875 1.4707 5.11523 2.33789H6.17578C6.08789 0.972656 4.86914 0 3.23438 0C1.44727 0 0.246094 0.972656 0.246094 2.4082C0.246094 3.60938 0.908203 4.30078 2.4375 4.6875L3.52148 4.96875C4.6875 5.26172 5.21484 5.71875 5.21484 6.43945C5.21484 7.27734 4.37695 7.89258 3.24023 7.89258C2.03906 7.89258 1.19531 7.33008 1.06641 6.44531H0Z" transform="translate(19.6738 0.845703)" fill="black"/>
<path d="M11.3086 8.6543V1.14844H14.0332V0.199219H7.5293V1.14844H10.2539V8.6543H11.3086Z" transform="translate(19.6738 0.845703)" fill="black"/>
<path d="M18.8672 8.85352C19.4121 8.85352 19.9277 8.76562 20.3789 8.5957L21.123 9.60938H22.3066L21.2344 8.12109C22.1953 7.42969 22.7344 6.11133 22.7344 4.42969C22.7344 1.70508 21.2461 0 18.8672 0C16.4766 0 14.9824 1.69922 14.9824 4.42969C14.9824 7.17188 16.459 8.85352 18.8672 8.85352ZM18.873 7.88086C17.1387 7.88086 16.0664 6.5625 16.0664 4.42969C16.0664 2.30273 17.1445 0.972656 18.8672 0.972656C20.5781 0.972656 21.6504 2.30859 21.6504 4.42969C21.6504 5.71875 21.2812 6.72656 20.6191 7.25391L19.8516 6.23438H18.6562L19.7754 7.75195C19.4824 7.83984 19.1836 7.88086 18.873 7.88086Z" transform="translate(19.6738 0.845703)" fill="black"/>
<path fill-rule="evenodd" clip-rule="evenodd" d="M12.5 0C12.2239 0 12 0.223846 12 0.5V9C12 9.27615 12.2239 9.5 12.5 9.5H14C14.2761 9.5 14.5 9.27615 14.5 9V0.5C14.5 0.223846 14.2761 0 14 0H12.5ZM8.5 2.5C8.22388 2.5 8 2.72385 8 3V9C8 9.27615 8.22388 9.5 8.5 9.5H10C10.2761 9.5 10.5 9.27615 10.5 9V3C10.5 2.72385 10.2761 2.5 10 2.5H8.5ZM4 5C4 4.72385 4.22388 4.5 4.5 4.5H6C6.27612 4.5 6.5 4.72385 6.5 5V9C6.5 9.27615 6.27612 9.5 6 9.5H4.5C4.22388 9.5 4 9.27615 4 9V5ZM0.5 6.5C0.223877 6.5 0 6.72385 0 7V9C0 9.27615 0.223877 9.5 0.5 9.5H2C2.27612 9.5 2.5 9.27615 2.5 9V7C2.5 6.72385 2.27612 6.5 2 6.5H0.5Z" transform="translate(0 1)" fill="black"/>
</svg>
